<svg version="1.1" id="Layer_1" xmlns="http://www.w3.org/2000/svg" xmlns:xlink="http://www.w3.org/1999/xlink" x="0px" y="0px"
	 width="100%" viewBox="0 0 1024 1024" enable-background="new 0 0 1024 1024" xml:space="preserve">
<path fill="#000000" opacity="1.000000" stroke="none" 
	d="
M412.752625,483.226196 
	C387.805023,455.975677 376.917633,423.948120 378.831696,387.702301 
	C381.724121,332.928436 421.370331,283.733032 474.859924,270.778259 
	C521.260620,259.540436 562.359558,270.043121 597.113525,302.824219 
	C619.782898,324.206787 631.981384,351.172760 635.367554,382.062469 
	C639.134583,416.426849 630.434509,447.852448 609.497131,474.926086 
	C587.047119,503.955750 557.013367,521.046021 519.907898,524.403625 
	C477.595001,528.232666 442.077240,514.248779 412.752625,483.226196 
M439.403717,307.911591 
	C409.156555,333.210785 394.056183,365.105286 397.192200,404.924957 
	C399.170746,430.048035 408.761780,452.085327 425.507294,470.670898 
	C449.941528,497.790009 480.778076,509.484100 517.168762,506.807800 
	C547.534241,504.574615 572.660950,491.451965 591.950012,468.482269 
	C622.100769,432.578339 626.697571,381.717743 603.551086,340.870697 
	C584.855347,307.878204 555.956299,288.624786 518.142273,284.626526 
	C489.308014,281.577789 463.160370,290.052765 439.403717,307.911591 
z"/>
<path fill="#000000" opacity="1.000000" stroke="none" 
	d="
M430.596893,639.602661 
	C440.096222,629.180725 450.504211,620.993652 464.551178,618.432190 
	C489.357391,613.908936 511.534729,630.010742 515.352966,655.223999 
	C518.041870,672.979248 511.820068,688.267212 501.591858,701.791504 
	C485.826202,722.637573 464.184387,733.566162 438.208984,736.456360 
	C424.350830,737.998230 410.593536,736.313416 396.790802,736.305603 
	C389.584381,736.301514 382.528198,736.909851 375.536194,738.695557 
	C369.122040,740.333801 364.848419,738.186401 363.132904,732.805725 
	C361.342651,727.190613 363.783051,722.984497 370.327881,720.719543 
	C374.604126,719.239624 379.052643,718.662842 383.583710,718.668457 
	C400.907288,718.690002 418.308502,719.730286 435.536133,718.447937 
	C460.960449,716.555420 488.949493,698.922913 495.858002,674.483765 
	C498.552063,664.953430 498.574097,655.757080 493.085266,647.103577 
	C487.950592,639.008301 477.366455,632.032104 462.497467,637.836853 
	C454.596588,640.921448 448.672302,646.420105 443.063171,652.338257 
	C435.619446,660.192017 428.362549,668.231506 421.235992,676.375427 
	C408.233032,691.234802 391.578888,700.239502 373.425751,707.101074 
	C360.033142,712.163147 346.673187,717.397827 335.327057,726.540466 
	C314.287201,743.494324 299.919006,765.128662 290.398438,790.218079 
	C286.442871,800.642151 282.525299,811.073853 279.226105,821.729614 
	C278.535065,823.961426 277.635132,826.155212 275.797333,827.725342 
	C273.393585,829.778992 270.775818,830.808289 267.531219,829.567261 
	C264.286438,828.326233 262.838165,825.926697 262.718140,822.681213 
	C262.485229,816.381653 264.991791,810.631470 266.675995,804.747864 
	C276.316406,771.070129 293.061554,741.641724 318.802612,717.536377 
	C330.946472,706.164246 345.006439,697.978455 360.624695,692.810425 
	C384.472504,684.919250 403.854767,671.049866 419.554199,651.645081 
	C422.899414,647.510376 426.733643,643.771240 430.596893,639.602661 
z"/>
<path fill="#000000" opacity="1.000000" stroke="none" 
	d="
M602.616638,566.394897 
	C601.257141,571.893494 597.710754,573.604248 592.799805,573.355225 
	C588.064087,573.115112 585.850281,569.997620 585.434265,565.927612 
	C584.089600,552.773865 583.656311,539.536743 589.487244,527.219604 
	C599.010071,507.103729 625.499634,502.586639 643.614441,517.714905 
	C650.185913,523.203003 654.814697,529.979858 657.216064,538.228027 
	C657.818115,540.296204 658.114868,542.523865 660.221008,543.755066 
	C675.318909,552.580994 682.754578,566.581360 685.842468,583.057617 
	C698.945312,652.971436 682.185242,715.617920 639.187622,771.676025 
	C634.395630,777.923584 629.980713,778.721741 625.755432,775.114746 
	C621.411682,771.406555 621.247009,765.463928 625.728760,759.964783 
	C645.569641,735.619934 658.308533,707.768677 665.879578,677.532837 
	C673.530762,646.976990 675.480713,616.174561 667.689453,585.240356 
	C666.335632,579.865051 664.384033,574.777344 661.424683,570.078674 
	C656.057617,561.557190 648.650513,557.606628 641.192993,559.327332 
	C634.553589,560.859253 628.781067,569.139099 627.296204,577.935059 
	C625.659363,587.630981 626.780273,597.225342 627.667358,606.792236 
	C629.873901,630.589050 626.865173,653.590515 618.247253,675.857361 
	C617.534912,677.698059 616.527466,679.512756 615.291626,681.044617 
	C612.570557,684.417542 608.757507,685.222839 604.908203,683.818115 
	C601.299500,682.501160 599.732422,679.283630 599.711243,675.449646 
	C599.695312,672.558411 600.714722,669.885254 601.796326,667.278015 
	C607.554321,653.398743 610.354187,638.983704 609.897034,623.943481 
	C609.466980,609.796875 608.706055,595.646301 608.798035,581.502075 
	C608.885132,568.103516 613.641846,556.546570 624.374390,547.764832 
	C628.511963,544.379333 633.535034,543.268188 638.214478,541.435974 
	C636.111389,533.047852 628.338013,527.107117 619.776611,527.026978 
	C611.847046,526.952820 605.659058,532.127502 603.536804,540.653503 
	C601.449585,549.039185 602.418335,557.532959 602.616638,566.394897 
z"/>
<path fill="#000000" opacity="1.000000" stroke="none" 
	d="
M337.282776,775.276855 
	C354.848175,757.687073 376.764404,751.963562 400.231110,750.766174 
	C417.020447,749.909607 433.809998,752.817322 450.616516,751.651245 
	C478.177277,749.738770 503.252991,741.971924 522.053711,720.105652 
	C522.812317,719.223328 523.653564,718.409607 524.482300,717.590210 
	C528.967712,713.155518 533.263184,712.635132 537.291565,716.025818 
	C541.221130,719.333435 541.493530,724.766785 537.752563,729.352417 
	C524.896729,745.110962 508.876038,756.298828 489.436188,762.452820 
	C470.528503,768.438293 451.267242,770.676880 431.369110,769.631714 
	C415.000793,768.771912 398.532562,767.403320 382.157654,771.118103 
	C367.129395,774.527466 354.554779,781.458557 344.875305,793.532043 
	C342.900452,795.995361 340.705688,798.290833 338.515503,800.570679 
	C336.292603,802.884766 333.578674,804.292725 330.445038,802.760803 
	C327.445435,801.294373 325.620026,798.744873 325.478333,795.229492 
	C325.323151,791.380798 326.653107,788.007385 328.987244,785.066101 
	C331.571899,781.809143 334.343231,778.700317 337.282776,775.276855 
z"/>
<path fill="#000000" opacity="1.000000" stroke="none" 
	d="
M521.597900,835.558350 
	C545.343750,826.547119 567.033386,814.756165 586.060913,798.342896 
	C588.683533,796.080688 591.333008,793.444702 595.233704,794.046875 
	C601.848022,795.067871 604.661255,802.306519 600.504150,807.911499 
	C598.744751,810.283630 596.415344,812.298218 594.111877,814.191711 
	C561.430298,841.057190 524.109680,857.322144 482.257538,863.535645 
	C462.519745,866.465942 442.746704,865.583923 422.959747,865.267517 
	C418.366150,865.193970 414.934875,860.939636 415.027039,856.063660 
	C415.115906,851.365662 418.690308,847.792053 423.848358,847.726807 
	C433.843658,847.600403 443.842377,847.624634 453.838593,847.712769 
	C477.060852,847.917603 499.492279,843.766296 521.597900,835.558350 
z"/>
<path fill="#000000" opacity="1.000000" stroke="none" 
	d="
M739.999878,441.939606 
	C730.675537,441.994263 721.850952,442.125000 713.026855,442.096436 
	C705.633057,442.072479 702.256653,438.929810 702.456665,432.537720 
	C702.637024,426.773804 705.884766,423.728210 712.204712,423.705536 
	C729.190674,423.644562 746.177002,423.659821 763.163147,423.677887 
	C767.202576,423.682190 771.084412,423.012421 774.845703,421.520752 
	C785.003784,417.492096 787.979004,409.020844 788.607483,399.176331 
	C788.829895,395.693024 788.530823,392.178284 788.703247,388.689453 
	C788.967712,383.338501 792.073730,380.045776 796.896057,379.711334 
	C801.935974,379.361816 806.111267,381.925934 806.403015,387.109344 
	C807.141785,400.235352 807.443848,413.488159 799.250488,424.979279 
	C790.858276,436.749237 778.499817,440.271240 764.947021,441.366608 
	C756.801941,442.024933 748.660889,442.257477 739.999878,441.939606 
z"/>
<path fill="#000000" opacity="1.000000" stroke="none" 
	d="
M222.584885,465.176697 
	C220.550278,471.857819 217.465942,474.177216 212.210754,473.303497 
	C207.727676,472.558167 204.636093,467.266510 205.065918,461.074158 
	C206.622055,438.655334 222.594299,423.873505 245.058792,423.620422 
	C263.528107,423.412415 282.010162,424.456818 300.472321,422.942169 
	C305.281372,422.547638 309.359253,424.499207 311.527466,429.119904 
	C313.181091,432.644073 312.402008,436.023163 309.878632,438.857635 
	C307.201355,441.864990 303.493469,442.158051 299.770050,442.101868 
	C283.624695,441.858337 267.480560,441.478821 251.334427,441.358490 
	C231.704147,441.212189 226.149200,445.848724 222.584885,465.176697 
z"/>
<path fill="#000000" opacity="1.000000" stroke="none" 
	d="
M484.476013,561.737183 
	C490.913147,550.481262 502.570526,545.270996 514.243896,548.169434 
	C525.902771,551.064209 534.011902,560.664185 534.332947,571.951843 
	C534.732239,585.989624 528.197388,595.902954 515.349426,599.500305 
	C504.729309,602.473877 494.945007,600.119690 487.689636,591.595215 
	C480.166321,582.755859 479.884064,572.558472 484.476013,561.737183 
M502.683807,567.102112 
	C499.149384,570.503906 498.032135,574.378662 500.739655,578.749512 
	C502.707245,581.925842 505.532074,583.888245 509.471039,583.097351 
	C514.959900,581.995239 517.902771,577.337341 516.424194,572.379395 
	C514.790161,566.900513 508.886444,564.326660 502.683807,567.102112 
z"/>
<path fill="#000000" opacity="1.000000" stroke="none" 
	d="
M371.351959,801.380859 
	C381.985382,789.242371 395.160187,783.039001 410.813812,781.828552 
	C415.693024,781.451294 420.481873,782.018127 425.104858,783.411621 
	C429.946686,784.871155 432.553467,788.955994 431.876770,793.195862 
	C431.163605,797.664185 427.251526,800.596375 422.045563,800.475830 
	C416.564484,800.348938 411.136261,800.108765 405.640503,801.095154 
	C394.730804,803.053162 386.925079,809.231873 380.819244,818.055237 
	C379.873352,819.422180 379.035706,820.881592 377.961731,822.139160 
	C374.191376,826.554016 370.460266,827.516968 366.725433,825.165283 
	C362.896301,822.754089 361.557678,817.545776 363.534851,812.735779 
	C365.275299,808.501648 368.461334,805.255493 371.351959,801.380859 
z"/>
<path fill="#000000" opacity="1.000000" stroke="none" 
	d="
M288.432617,331.507019 
	C287.489075,331.417969 286.838501,331.390442 286.187958,331.362915 
	C287.301270,335.285858 282.071075,337.559204 283.606750,341.836792 
	C284.175171,343.420044 282.060242,344.218903 280.423401,343.872070 
	C275.951538,342.924408 272.325287,340.866913 270.940979,336.095917 
	C269.615814,331.528748 271.817505,328.776886 275.664246,326.900879 
	C277.688690,325.913574 278.312469,324.740662 277.946075,322.224976 
	C276.892242,314.988892 281.648590,310.846924 288.790375,312.533478 
	C296.756622,314.414734 303.816101,318.725861 311.550476,321.280243 
	C317.224579,323.154205 322.839264,325.242767 328.371979,327.501404 
	C335.266663,330.316071 338.047363,335.204315 335.864227,340.072571 
	C333.603119,345.114685 326.834961,347.146393 320.708130,344.197449 
	C310.343689,339.208862 299.367157,335.823639 288.432617,331.507019 
z"/>
<path fill="#000000" opacity="1.000000" stroke="none" 
	d="
M411.116272,183.272949 
	C410.115326,174.193253 411.445679,171.136078 416.614227,169.910263 
	C421.798309,168.680801 425.936584,171.420715 428.815552,178.391037 
	C433.956818,190.838776 438.958069,203.344498 443.989838,215.837250 
	C446.275970,221.513168 445.794617,226.611740 440.485596,230.434631 
	C439.219971,231.345978 439.017303,232.384796 438.883698,233.794464 
	C438.355774,239.364761 434.498108,241.312943 429.154480,239.246460 
	C424.979065,237.631729 420.447968,236.711685 419.841034,230.683548 
	C422.296021,230.717072 423.523590,232.299072 424.768219,233.690186 
	C425.914246,234.971054 427.132050,236.036453 428.864349,236.341522 
	C430.858826,236.692749 432.572021,236.158737 433.542938,234.316788 
	C434.528778,232.446472 434.242523,230.900757 432.151489,229.766388 
	C430.513641,228.877899 429.437225,227.297836 428.720337,225.583817 
	C422.881165,211.623047 417.073639,197.649063 411.116272,183.272949 
z"/>
<path fill="#000000" opacity="1.000000" stroke="none" 
	d="
M575.257080,205.354553 
	C578.517761,196.940872 581.616577,188.875168 584.719238,180.810959 
	C585.136719,179.725769 585.525940,178.626144 586.009460,177.570435 
	C589.316528,170.349869 594.005920,167.892487 599.603821,170.418991 
	C604.592773,172.670654 605.729736,177.975342 602.813721,185.160355 
	C598.252197,196.399948 593.726135,207.653931 589.165405,218.893829 
	C588.354126,220.893295 587.608215,222.944870 586.552551,224.814514 
	C583.963074,229.400604 579.677612,231.316315 575.822571,229.812683 
	C571.479187,228.118561 569.479675,223.534790 570.484131,218.319077 
	C571.346802,213.839844 573.683655,209.951355 575.257080,205.354553 
z"/>
<path fill="#000000" opacity="1.000000" stroke="none" 
	d="
M719.905945,334.008179 
	C711.914917,336.995789 704.243286,339.729919 696.676208,342.727997 
	C691.350281,344.838135 685.916809,345.774811 680.150574,345.578400 
	C679.609558,343.512970 679.124268,341.621185 678.618042,339.735046 
	C677.182983,334.388123 678.915344,329.860626 684.166626,327.949738 
	C697.910645,322.948486 711.613281,317.854919 725.227600,312.508484 
	C729.261658,310.924225 733.044067,312.440887 735.191284,316.040588 
	C737.381836,319.713074 737.167725,323.680389 733.962952,327.030792 
	C730.216797,330.947418 725.053833,332.028137 719.905945,334.008179 
z"/>
<path fill="#000000" opacity="1.000000" stroke="none" 
	d="
M373.158508,254.839783 
	C375.849731,256.891174 377.909607,259.054871 379.334442,261.733856 
	C381.411530,265.639099 380.224640,270.165405 376.419617,273.235321 
	C372.918579,276.059967 368.249542,276.179901 365.039093,273.107147 
	C354.843414,263.348846 344.688599,253.544373 334.694000,243.581192 
	C330.823914,239.723282 330.678711,234.368774 333.769745,231.023972 
	C336.884430,227.653595 342.083649,227.322098 346.457123,230.378769 
	C348.215118,231.607468 349.802246,233.098511 351.380157,234.563858 
	C358.561310,241.232773 365.711517,247.935028 373.158508,254.839783 
z"/>
<path fill="#000000" opacity="1.000000" stroke="none" 
	d="
M680.723450,231.599884 
	C683.418152,236.241638 682.986755,240.160278 679.302979,243.602921 
	C669.112122,253.126801 658.987793,262.723694 648.687805,272.128174 
	C644.182983,276.241272 638.764648,276.065002 635.398376,272.176697 
	C631.614746,267.806213 631.875427,262.862762 636.552979,258.520508 
	C646.288574,249.482742 656.087402,240.507797 666.045898,231.717407 
	C671.697754,226.728516 675.343689,226.820984 680.723450,231.599884 
z"/>
<path fill="#000000" opacity="1.000000" stroke="none" 
	d="
M297.610626,394.567200 
	C304.694824,394.585815 311.336487,394.343689 317.941895,394.726532 
	C323.172577,395.029755 326.327667,398.728790 326.297302,403.474670 
	C326.270721,407.628265 322.713104,412.039673 318.164062,412.115265 
	C302.887665,412.369110 287.602478,412.279083 272.323822,412.078583 
	C268.626373,412.030090 264.751892,406.351807 264.933380,402.153656 
	C265.112396,398.011566 268.279938,394.782959 272.733795,394.693481 
	C280.870819,394.529999 289.012634,394.602173 297.610626,394.567200 
z"/>
<path fill="#000000" opacity="1.000000" stroke="none" 
	d="
M746.248901,399.999023 
	C747.476868,407.910278 743.994507,412.241699 736.318420,412.305389 
	C723.166748,412.414581 710.011963,412.388885 696.860840,412.231354 
	C689.913635,412.148163 686.539795,408.795013 686.682617,402.702179 
	C686.795593,397.886017 689.483521,394.820618 694.405945,394.729156 
	C708.715271,394.463348 723.028931,394.354889 737.340820,394.360626 
	C741.142395,394.362152 744.604858,395.561340 746.248901,399.999023 
z"/>
<path fill="#000000" opacity="1.000000" stroke="none" 
	d="
M476.148102,675.096558 
	C470.459381,681.910583 464.638763,688.023376 456.505646,691.305481 
	C448.429535,694.564453 442.010223,689.853333 442.643799,681.283447 
	C442.870667,678.214661 444.416443,676.322632 447.040527,675.231567 
	C455.201813,671.838074 460.862183,665.831970 465.566345,658.523499 
	C470.187073,651.344727 474.566315,649.896973 479.270172,653.226379 
	C484.121063,656.660034 484.612640,662.992004 480.451752,669.166992 
	C479.154358,671.092468 477.724609,672.928833 476.148102,675.096558 
z"/>
<path fill="#000000" opacity="1.000000" stroke="none" 
	d="
M512.306519,207.784119 
	C510.942108,212.864548 507.751465,216.047089 503.031830,215.686325 
	C498.168823,215.314621 495.957855,211.349380 495.280853,206.633850 
	C494.281433,199.672546 495.607971,192.736359 495.407104,185.780441 
	C495.278168,181.315811 495.321594,176.820282 495.700317,172.373734 
	C496.141113,167.198380 499.205200,164.293442 503.899231,163.957733 
	C508.007263,163.663925 511.496948,166.369568 512.711304,171.183533 
	C513.228455,173.233856 513.297974,175.449539 513.245667,177.582123 
	C513.002197,187.513290 512.644897,197.441696 512.306519,207.784119 
z"/>
<path fill="#000000" opacity="1.000000" stroke="none" 
	d="
M737.906433,344.027832 
	C731.262939,346.314148 725.011597,348.593079 718.650391,350.507263 
	C715.673401,351.403107 711.942505,352.592407 712.696960,346.812836 
	C712.993896,344.537598 711.265808,344.006683 709.429199,344.143066 
	C707.848450,344.260437 706.287048,344.638367 704.518188,344.391174 
	C707.795959,342.698456 710.945129,340.637756 714.232422,339.447144 
	C721.920593,336.662567 729.103455,332.951538 736.264893,329.134674 
	C741.266541,326.468903 744.197876,326.969452 746.418701,331.051331 
	C748.812256,335.450623 747.769287,338.782562 743.136353,341.365540 
	C741.539429,342.255798 739.882874,343.038940 737.906433,344.027832 
z"/>
<path fill="#000000" opacity="1.000000" stroke="none" 
	d="
M582.402100,644.383179 
	C575.043274,649.425537 568.615417,646.784912 567.156799,638.387024 
	C566.205139,632.907837 566.801819,627.393799 567.874390,622.006714 
	C568.507263,618.828674 570.773804,616.854553 574.251404,616.676880 
	C578.239197,616.473206 582.813293,616.620850 583.928650,620.955994 
	C585.901001,628.622009 587.193054,636.611084 582.402100,644.383179 
z"/>
<path fill="#000000" opacity="1.000000" stroke="none" 
	d="
M312.754211,490.033691 
	C323.632782,488.982117 329.372559,494.590912 326.555115,503.005493 
	C325.181824,507.106995 322.677979,509.947418 318.076416,510.322235 
	C313.460999,510.698120 309.860504,509.031586 307.836975,504.773499 
	C305.805328,500.498260 306.283356,496.324371 309.216827,492.596252 
	C310.008392,491.590240 311.296143,490.974579 312.754211,490.033691 
z"/>
<path fill="#000000" opacity="1.000000" stroke="none" 
	d="
M568.020508,687.130676 
	C570.399841,690.309204 570.934753,693.482849 569.829041,696.846130 
	C568.300110,701.496765 564.351013,704.371338 559.794373,704.303589 
	C554.923340,704.231079 552.038147,701.393494 550.902039,697.050598 
	C549.773010,692.734558 549.951294,688.388000 554.138123,685.413757 
	C558.102417,682.597656 563.234680,683.171875 568.020508,687.130676 
z"/>
<path fill="#000000" opacity="1.000000" stroke="none" 
	d="
M324.463135,831.086182 
	C319.358734,832.010803 315.761078,830.271484 313.714508,826.064880 
	C311.877136,822.288147 311.860443,818.238953 314.270050,814.646790 
	C316.531036,811.276245 320.055603,810.200378 323.938934,810.818604 
	C328.638824,811.566772 331.121948,814.792236 332.083740,819.203308 
	C333.084717,823.794128 330.323120,828.142090 324.463135,831.086182 
z"/>
<path fill="#000000" opacity="1.000000" stroke="none" 
	d="
M603.960449,715.000488 
	C602.363892,722.256226 599.517700,725.111694 594.061462,725.349182 
	C588.989624,725.569946 585.445923,722.926208 584.744141,718.398254 
	C583.610718,711.085144 586.043213,706.554321 591.925537,705.021667 
	C596.336792,703.872375 601.409363,706.651855 603.107605,711.221313 
	C603.509583,712.302856 603.667480,713.475220 603.960449,715.000488 
z"/>
<path fill="#000000" opacity="1.000000" stroke="none" 
	d="
M645.456665,277.594238 
	C649.417725,276.240540 652.501831,273.355591 656.966553,275.736115 
	C660.624817,277.686646 661.962891,279.877411 659.233948,282.892090 
	C655.184387,287.365662 650.333679,290.880066 644.162903,291.931335 
	C640.307251,292.588165 637.887634,290.249237 635.970154,287.400513 
	C634.206360,284.779938 634.727600,282.087646 636.156921,279.399200 
	C638.465637,275.056458 642.131531,278.359497 645.456665,277.594238 
z"/>
<path fill="#000000" opacity="1.000000" stroke="none" 
	d="
M370.994934,853.786377 
	C365.905640,858.708618 362.204895,859.427429 358.031250,856.565552 
	C354.392303,854.070251 352.598602,848.408203 354.098755,844.151917 
	C355.708893,839.583618 360.004822,837.088318 365.143890,837.736206 
	C372.143463,838.618652 375.093719,846.246033 370.994934,853.786377 
z"/>
<path fill="#000000" opacity="1.000000" stroke="none" 
	d="
M582.727295,600.640747 
	C579.190002,604.648560 575.159546,605.410217 570.806274,603.327759 
	C566.539612,601.286804 564.650146,596.245117 565.823364,590.890625 
	C566.708191,586.852600 569.314392,584.496216 573.377197,584.052429 
	C577.252991,583.629150 580.732788,584.806458 582.926880,588.166504 
	C585.501465,592.109314 585.507263,596.263794 582.727295,600.640747 
z"/>
<path fill="#000000" opacity="1.000000" stroke="none" 
	d="
M702.441040,355.726379 
	C696.705688,357.560913 691.361694,359.430206 685.904114,360.868652 
	C680.400085,362.319427 674.546387,357.244324 674.913025,351.653351 
	C674.991150,350.461914 675.164185,349.313141 676.408325,348.719147 
	C677.484497,348.205292 678.437317,348.568970 679.055603,349.421387 
	C681.367249,352.608063 684.316772,351.577759 687.183899,350.676849 
	C690.869446,349.518738 694.336853,348.341187 697.903931,351.401581 
	C699.739502,352.976379 702.809326,351.137787 704.929749,352.585480 
	C705.437866,354.697662 703.867554,354.943542 702.441040,355.726379 
z"/>
<path fill="#000000" opacity="1.000000" stroke="none" 
	d="
M334.319427,258.647858 
	C341.764435,266.058746 349.495605,272.549347 358.193604,277.831665 
	C359.041870,278.346832 360.134369,278.682220 360.689819,279.420013 
	C363.634186,283.330902 367.225128,284.879059 371.962097,282.560516 
	C371.870758,287.648834 367.834503,289.952911 363.155640,288.137695 
	C358.099945,286.176300 355.281921,281.574188 351.338196,278.313049 
	C343.909851,272.170410 336.813812,265.623352 329.645203,259.171600 
	C328.469055,258.113098 326.958496,257.137085 326.837830,254.752945 
	C329.976990,254.759644 332.082275,256.453064 334.319427,258.647858 
z"/>
<path fill="#000000" opacity="1.000000" stroke="none" 
	d="
M688.654907,495.750793 
	C690.833740,496.698181 689.838257,498.548615 689.859558,500.025696 
	C689.906189,503.264709 691.269409,505.422333 694.300903,506.491119 
	C696.741150,507.351501 698.966553,506.928101 700.586182,504.854889 
	C702.424438,502.501770 704.471252,500.073486 702.839050,496.765503 
	C701.927551,494.918121 700.798889,493.177948 699.543579,490.999847 
	C705.866577,493.906006 708.059326,497.990601 706.261475,502.783112 
	C704.525879,507.409332 698.423401,511.004395 694.366882,509.790283 
	C688.945496,508.167633 686.607971,502.709106 688.654907,495.750793 
z"/>
</svg>